<svg viewBox="0 0 400 240" role="img" xmlns="http://www.w3.org/2000/svg">
  <title>Director sees your work</title>
  <desc>Coach figure on the left works with a session, signal flows up to a director glyph at the top showing aggregated view.</desc>
  <!-- Coach with session output (bottom left) -->
  <g class="illo-stroke">
    <circle cx="80" cy="160" r="8" fill="var(--aos-bg)"/>
    <line x1="80" y1="168" x2="80" y2="195"/>
    <line x1="80" y1="176" x2="68" y2="186"/>
    <line x1="80" y1="176" x2="92" y2="186"/>
    <line x1="80" y1="195" x2="74" y2="210"/>
    <line x1="80" y1="195" x2="86" y2="210"/>
  </g>
  <!-- Session record (next to coach) -->
  <g>
    <rect x="110" y="155" width="80" height="42" rx="3" class="illo-dim-stroke" fill="var(--aos-surface)"/>
    <circle cx="120" cy="167" r="2" class="illo-accent-fill"/>
    <line x1="128" y1="167" x2="180" y2="167" stroke="var(--aos-text-dim)" stroke-width="0.5"/>
    <line x1="118" y1="178" x2="180" y2="178" stroke="var(--aos-text-dim)" stroke-width="0.5" opacity="0.6"/>
    <line x1="118" y1="188" x2="170" y2="188" stroke="var(--aos-text-dim)" stroke-width="0.5" opacity="0.6"/>
  </g>
  <!-- Upward signal lines (multiple coaches feeding up) -->
  <g stroke="var(--aos-accent)" stroke-width="0.75" stroke-dasharray="2 3" fill="none" opacity="0.55">
    <path d="M 150 150 Q 180 110 220 70"/>
    <path d="M 250 200 Q 240 140 230 80"/>
    <path d="M 320 170 Q 280 130 240 80"/>
  </g>
  <!-- Other muted coaches (background, faded) -->
  <g class="illo-stroke-muted" opacity="0.5">
    <circle cx="250" cy="200" r="5" fill="var(--aos-bg)"/>
    <line x1="250" y1="205" x2="250" y2="222"/>
  </g>
  <g class="illo-stroke-muted" opacity="0.5">
    <circle cx="320" cy="170" r="5" fill="var(--aos-bg)"/>
    <line x1="320" y1="175" x2="320" y2="192"/>
  </g>
  <!-- Director aggregation glyph (top) -->
  <g>
    <rect x="190" y="40" width="90" height="40" rx="6" class="illo-stroke" fill="var(--aos-surface)"/>
    <circle cx="202" cy="60" r="2.5" class="illo-accent-fill"/>
    <line x1="212" y1="55" x2="268" y2="55" stroke="var(--aos-text)" stroke-width="0.5"/>
    <line x1="212" y1="63" x2="260" y2="63" stroke="var(--aos-text-dim)" stroke-width="0.5"/>
    <line x1="212" y1="71" x2="252" y2="71" stroke="var(--aos-text-dim)" stroke-width="0.5"/>
  </g>
  <text x="235" y="32" fill="var(--aos-text-dim)" font-size="9" text-anchor="middle" letter-spacing="0.15em" font-family="inherit">DIRECTOR VIEW</text>
</svg>
