<svg viewBox="0 0 400 240" role="img" xmlns="http://www.w3.org/2000/svg">
  <title>The academy operating loop</title>
  <desc>Six nodes arranged in a circular loop with arrows flowing between them, showing how plans become sessions become signals become refined plans.</desc>
  <!-- 6 nodes in an ellipse: plan, schedule, run, capture, learn, refine -->
  <g class="illo-stroke">
    <circle cx="200" cy="50" r="18" fill="var(--aos-surface)"/>
    <circle cx="310" cy="100" r="18" fill="var(--aos-surface)"/>
    <circle cx="310" cy="170" r="18" fill="var(--aos-surface)"/>
    <circle cx="200" cy="208" r="18" fill="var(--aos-surface)"/>
    <circle cx="90" cy="170" r="18" fill="var(--aos-surface)"/>
    <circle cx="90" cy="100" r="18" fill="var(--aos-surface)"/>
  </g>
  <!-- Node dots inside -->
  <g fill="var(--aos-text-muted)">
    <circle cx="200" cy="50" r="2.5"/>
    <circle cx="310" cy="100" r="2.5"/>
    <circle cx="310" cy="170" r="2.5"/>
    <circle cx="200" cy="208" r="2.5"/>
    <circle cx="90" cy="170" r="2.5"/>
    <circle cx="90" cy="100" r="2.5"/>
  </g>
  <!-- Arrows along the loop -->
  <defs>
    <marker id="aLoopArrow" viewBox="0 0 10 10" refX="9" refY="5" markerWidth="5" markerHeight="5" orient="auto">
      <path d="M2 1 L8 5 L2 9" fill="none" stroke="var(--aos-accent)" stroke-width="1.5" stroke-linecap="round" stroke-linejoin="round"/>
    </marker>
  </defs>
  <g stroke="var(--aos-accent)" stroke-width="1.25" fill="none" stroke-linecap="round" marker-end="url(#aLoopArrow)" opacity="0.85">
    <path d="M 218 56 Q 270 60 295 88"/>
    <path d="M 314 122 Q 318 145 314 152"/>
    <path d="M 296 184 Q 270 205 222 207"/>
    <path d="M 178 207 Q 130 205 104 184"/>
    <path d="M 86 152 Q 82 140 86 122"/>
    <path d="M 105 88 Q 130 60 182 56"/>
  </g>
  <!-- Center label -->
  <text x="200" y="125" fill="var(--aos-accent)" font-size="11" text-anchor="middle" letter-spacing="0.15em" font-family="inherit" font-weight="500">CLOSED LOOP</text>
  <text x="200" y="142" fill="var(--aos-text-dim)" font-size="9" text-anchor="middle" font-family="inherit">no information lost</text>
  <!-- Stage labels around (outside the circle) -->
  <text x="200" y="34" fill="var(--aos-text-muted)" font-size="10" text-anchor="middle" font-family="inherit">Plan</text>
  <text x="338" y="103" fill="var(--aos-text-muted)" font-size="10" text-anchor="start" font-family="inherit">Schedule</text>
  <text x="338" y="173" fill="var(--aos-text-muted)" font-size="10" text-anchor="start" font-family="inherit">Run</text>
  <text x="200" y="232" fill="var(--aos-text-muted)" font-size="10" text-anchor="middle" font-family="inherit">Capture</text>
  <text x="62" y="173" fill="var(--aos-text-muted)" font-size="10" text-anchor="end" font-family="inherit">Learn</text>
  <text x="62" y="103" fill="var(--aos-text-muted)" font-size="10" text-anchor="end" font-family="inherit">Refine</text>
</svg>
